<svg width="270" height="185" viewBox="0 0 270 185" fill="none" xmlns="http://www.w3.org/2000/svg">
<path d="M132.402 144.947C130.792 139.397 130.042 133.647 128.132 128.167C126.042 122.167 123.672 116.247 121.752 110.167C119.892 104.267 117.752 98.5374 117.332 92.2574C117.222 88.4125 115.602 84.7657 112.822 82.1073C111.624 80.8907 110.022 80.1541 108.318 80.0362C106.614 79.9184 104.926 80.4274 103.572 81.4674C102.142 82.5174 100.862 83.7874 99.5119 84.9574C99.6371 85.7061 99.8041 86.4472 100.012 87.1773C100.332 88.1773 100.512 89.1774 99.6019 89.7574C98.4419 90.5274 98.0819 89.1174 97.3819 88.6374C97.2283 88.5225 97.0814 88.3989 96.9419 88.2674V88.3274C96.7219 88.9274 96.1919 89.2273 95.7419 89.6073C92.4448 93.6711 88.6975 97.3479 84.5719 100.567C83.262 101.418 82.186 102.584 81.4419 103.957C81.5419 104.527 81.6419 105.107 81.7519 105.677C82.0219 107.067 81.4819 107.447 80.2119 106.947C79.8519 106.807 79.5019 106.637 79.1419 106.477C77.7019 107.267 76.9819 108.707 76.0019 109.937C73.6819 113.1 71.1138 116.073 68.3219 118.827C67.3219 119.757 66.3819 120.897 64.7719 120.257C63.1619 119.617 61.5519 118.717 61.4219 116.597C61.3619 115.597 61.3119 114.597 61.2519 113.597C59.2519 111.597 59.7919 108.857 59.3119 106.207C54.6919 106.387 50.2519 104.007 45.4919 105.207C44.6149 105.42 43.6941 105.363 42.8501 105.044C42.0062 104.724 41.2783 104.157 40.7619 103.417C39.1219 101.417 37.5419 99.4173 35.8319 97.4173C32.9219 94.1173 29.4919 92.0574 24.8319 93.0674C23.8621 93.3452 22.8322 93.3332 21.8692 93.0329C20.9061 92.7326 20.0519 92.1571 19.4119 91.3774C16.6119 87.8074 12.3419 87.2274 8.56189 85.5674C4.49189 83.7674 0.721885 87.3074 0.301885 90.7474C0.157974 92.9349 0.443335 95.1294 1.14189 97.2074C3.53189 106.207 4.93189 115.497 8.78189 124.087C9.02081 124.844 9.1718 125.626 9.23189 126.417C10.5619 133.227 11.7619 140.067 13.2319 146.847C14.8019 153.997 16.1219 161.267 20.4919 167.447C21.379 167.915 22.1409 168.588 22.7134 169.411C23.2859 170.234 23.6524 171.183 23.7819 172.177C24.1719 174.177 25.3019 175.827 25.8919 177.657C27.1519 181.557 30.0719 182.477 33.5119 182.927H33.5719L34.8619 181.867C36.2841 181.111 37.3955 179.88 38.0019 178.387C39.3419 174.517 42.0019 171.567 44.5919 168.507C46.7619 165.917 48.7519 163.167 50.9519 160.597C53.1813 157.804 55.5932 155.162 58.1719 152.687C61.0219 150.117 63.6519 147.537 65.0819 143.857C65.7192 142.166 66.8089 140.682 68.2319 139.567C69.1219 138.867 70.0619 138.687 70.8719 139.567C71.6533 140.465 72.3781 141.41 73.0419 142.397C75.6635 146.163 79.2015 149.199 83.3219 151.217C88.8819 153.917 94.5819 156.217 100.322 158.617C107.902 161.787 115.062 165.687 119.772 172.867C120.211 173.532 120.688 174.169 121.202 174.777C124.862 179.077 130.672 178.777 133.842 174.147C134.966 172.484 135.552 170.515 135.522 168.507C135.522 161.937 135.862 155.347 133.452 149.027C132.922 147.707 132.792 146.277 132.402 144.947ZM8.76188 106.947C8.54188 107.027 8.17188 106.727 7.87188 106.587C8.00188 106.287 8.07189 105.807 8.28189 105.727C8.49189 105.647 8.88189 105.947 9.18189 106.077C9.05189 106.357 8.98188 106.827 8.76188 106.917V106.947ZM16.5419 104.267C15.6019 103.997 15.5419 103.207 15.6619 102.467C15.7819 101.727 16.1119 100.867 17.0819 101.177C17.4419 101.297 17.7619 102.077 17.7919 102.587C17.8187 102.778 17.8075 102.972 17.7591 103.158C17.7107 103.344 17.626 103.519 17.5098 103.672C17.3937 103.825 17.2484 103.954 17.0823 104.051C16.9162 104.148 16.7325 104.212 16.5419 104.237V104.267ZM25.4419 133.607C24.8119 133.387 24.5419 132.847 24.9619 132.287C25.0498 132.168 25.1606 132.066 25.288 131.99C25.4153 131.913 25.5567 131.863 25.7037 131.841C25.8508 131.82 26.0006 131.828 26.1445 131.865C26.2884 131.902 26.4235 131.968 26.5419 132.057C26.7919 132.227 26.8219 132.717 26.9519 133.057C26.8078 133.314 26.5738 133.508 26.2949 133.603C26.016 133.697 25.7121 133.684 25.4419 133.567V133.607ZM33.8319 161.747C33.5147 161.957 33.1282 162.034 32.7547 161.963C32.3812 161.892 32.0502 161.679 31.8319 161.367C31.2133 160.638 30.6326 159.877 30.0919 159.087C28.3363 155.109 26.9959 150.961 26.0919 146.707C28.4219 147.867 28.7819 149.397 29.4519 150.617C30.1219 151.837 30.6419 153.097 31.2319 154.347C33.0219 155.697 33.5019 157.867 34.4919 159.707C34.6389 160.066 34.6532 160.466 34.5323 160.834C34.4113 161.202 34.163 161.516 33.8319 161.717V161.747ZM36.2319 152.747C36.0749 152.753 35.9215 152.699 35.8019 152.597C35.8019 152.597 35.8819 152.347 35.9319 152.217L36.3819 152.377C36.3319 152.497 36.2919 152.737 36.2319 152.737V152.747ZM95.1319 137.887C94.5719 139.617 93.2919 140.247 91.4619 139.637C90.3519 139.267 89.7819 138.367 90.1819 137.407C90.9919 135.477 91.8919 133.517 94.0619 132.267C95.2019 134.137 95.7719 135.867 95.1319 137.887ZM110.082 123.717C109.212 124.087 108.672 123.317 108.182 122.717C108.069 122.555 107.968 122.385 107.882 122.207C106.742 119.907 106.382 117.267 104.682 115.207C104.469 114.865 104.369 114.464 104.398 114.061C104.427 113.659 104.582 113.276 104.842 112.967C105.224 112.59 105.667 112.279 106.152 112.047C106.592 112.347 107.082 112.497 107.202 112.797C108.202 115.337 109.202 117.897 110.202 120.467C110.414 121.029 110.52 121.626 110.512 122.227C110.462 122.717 110.372 123.567 110.072 123.717H110.082Z" fill="#B0EAC7"/>
<path d="M48.8917 102.497C48.5817 101.497 49.7617 100.157 50.8917 100.067C51.1343 100.085 51.3709 100.151 51.5873 100.262C51.8038 100.373 51.9957 100.526 52.1516 100.713C52.3074 100.899 52.4241 101.115 52.4946 101.348C52.565 101.581 52.5879 101.825 52.5617 102.067C52.5599 102.48 52.4306 102.881 52.1917 103.217C54.4317 103.437 56.6917 104.217 58.9317 104.597C60.3117 104.837 60.4317 106.037 60.4817 107.357C60.5617 109.447 59.9917 111.677 61.2817 113.617C61.2117 111.267 61.2817 108.887 61.0317 106.547C60.9003 105.067 60.4408 103.635 59.6866 102.355C58.9325 101.075 57.9025 99.9794 56.6717 99.1473C55.2982 98.1571 53.5955 97.7355 51.9187 97.9702C50.2419 98.205 48.7205 99.078 47.6717 100.407C46.4798 101.742 45.726 103.411 45.5117 105.187C46.6142 104.214 47.9636 103.564 49.4117 103.307C49.1699 103.088 48.9905 102.808 48.8917 102.497Z" fill="#78B285"/>
<path d="M59.3122 106.207C59.7922 108.857 59.2322 111.567 61.2522 113.597C59.9622 111.657 60.5322 109.427 60.4522 107.337C60.4522 106.017 60.2822 104.817 58.9022 104.577C56.6622 104.177 54.4022 103.417 52.1622 103.197C51.9349 103.482 51.6042 103.665 51.2422 103.707C50.9219 103.777 50.5902 103.775 50.2705 103.703C49.9509 103.63 49.651 103.488 49.3922 103.287C47.9441 103.544 46.5947 104.194 45.4922 105.167C50.2522 104.007 54.6922 106.387 59.3122 106.207Z" fill="#78B285"/>
<path d="M23.5819 174.377C22.9028 171.928 21.8649 169.593 20.502 167.447C21.382 170.227 22.1719 173.037 23.1619 175.767C23.8503 177.587 24.6553 179.361 25.572 181.077C26.0322 181.831 26.6505 182.477 27.3842 182.969C28.1179 183.461 28.9496 183.788 29.822 183.927C31.192 184.277 32.5519 184.237 33.5219 182.927C27.8519 183.427 25.3819 181.567 23.5819 174.377Z" fill="#86B891"/>
<path d="M25.9019 177.657C25.3119 175.827 24.182 174.187 23.792 172.177C23.6625 171.183 23.296 170.234 22.7235 169.411C22.1509 168.588 21.3891 167.915 20.502 167.447C21.8649 169.593 22.9028 171.928 23.5819 174.377C25.3819 181.527 27.8519 183.427 33.5219 182.927C30.1319 182.477 27.1319 181.567 25.9019 177.657Z" fill="#86B891"/>
<path d="M99.5114 84.9473C98.8237 85.215 98.2216 85.6642 97.769 86.2471C97.3164 86.83 97.0304 87.5247 96.9414 88.2573C98.7514 87.8973 98.4214 85.8673 99.5114 84.9473Z" fill="#83B78F"/>
<path d="M99.6014 89.7473C100.511 89.1573 100.331 88.1272 100.011 87.1672C99.8036 86.4371 99.6367 85.696 99.5114 84.9473C98.4214 85.8673 98.7514 87.9473 96.9414 88.2573C97.081 88.3888 97.2279 88.5123 97.3814 88.6273C98.1314 89.1073 98.4414 90.5673 99.6014 89.7473Z" fill="#83B78F"/>
<path d="M81.4416 103.907C80.9026 104.142 80.4191 104.488 80.0228 104.922C79.6265 105.356 79.3262 105.869 79.1416 106.427C80.1933 105.9 81.0127 105.003 81.4416 103.907Z" fill="#80B58B"/>
<path d="M81.7516 105.627C81.6416 105.057 81.5416 104.477 81.4416 103.907C81.0127 105.003 80.1933 105.9 79.1416 106.427C79.5016 106.587 79.8516 106.757 80.2116 106.897C81.4816 107.397 82.0216 107.017 81.7516 105.627Z" fill="#80B58B"/>
<path d="M34.872 181.837C34.472 182.226 34.0405 182.58 33.582 182.897C33.881 182.878 34.1663 182.765 34.3978 182.575C34.6293 182.385 34.7951 182.127 34.872 181.837Z" fill="#86B891"/>
<path d="M33.582 182.897C34.0405 182.58 34.472 182.226 34.872 181.837L33.582 182.897Z" fill="#86B891"/>
<path d="M107.192 112.757C107.072 112.457 106.582 112.307 106.142 112.007C105.657 112.239 105.214 112.55 104.832 112.927C104.572 113.236 104.416 113.619 104.388 114.021C104.359 114.424 104.458 114.825 104.672 115.167C106.372 117.247 106.732 119.887 107.872 122.167C107.958 122.345 108.058 122.515 108.172 122.677C108.662 123.297 109.172 124.067 110.072 123.677C110.372 123.547 110.462 122.677 110.472 122.147C110.479 121.546 110.374 120.949 110.162 120.387C109.212 117.857 108.232 115.297 107.192 112.757Z" fill="#A1C5A9"/>
<path d="M90.1317 137.407C89.7317 138.407 90.3017 139.267 91.4117 139.637C93.2417 140.247 94.5217 139.637 95.0817 137.887C95.7317 135.887 95.1617 134.137 94.0117 132.267C91.8817 133.567 90.9817 135.477 90.1317 137.407Z" fill="#C2D4C6"/>
<path d="M31.2121 154.317C29.6621 155.607 30.1321 157.397 30.0521 159.057C30.5928 159.847 31.1735 160.608 31.7921 161.337C32.0104 161.649 32.3414 161.863 32.7149 161.933C33.0884 162.004 33.4749 161.927 33.7921 161.717C34.1174 161.513 34.36 161.2 34.4771 160.834C34.5942 160.468 34.5782 160.073 34.4321 159.717C33.4821 157.837 33.0021 155.667 31.2121 154.317Z" fill="#AECBB4"/>
<path d="M31.2123 154.317C30.6223 153.067 30.0923 151.797 29.4323 150.587C28.7723 149.377 28.4323 147.837 26.0723 146.677C26.9762 150.931 28.3167 155.079 30.0723 159.057C29.5023 157.247 28.1323 155.237 31.2123 154.317Z" fill="#A2C5AA"/>
<path d="M31.2119 154.317C28.1319 155.237 29.5019 157.247 30.0519 159.057C30.1319 157.397 29.6619 155.567 31.2119 154.317Z" fill="#A2C5AA"/>
<path d="M17.1322 101.147C16.1322 100.837 15.7922 101.637 15.7122 102.437C15.6322 103.237 15.6522 103.967 16.5922 104.237C16.7858 104.212 16.9722 104.148 17.1405 104.049C17.3089 103.95 17.4556 103.818 17.5722 103.662C17.6887 103.505 17.7727 103.326 17.8191 103.137C17.8654 102.947 17.8733 102.75 17.8422 102.557C17.7622 102.047 17.4422 101.267 17.1322 101.147Z" fill="#A5C7AC"/>
<path d="M26.952 133.017C26.822 132.687 26.792 132.197 26.542 132.017C26.4236 131.928 26.2885 131.862 26.1446 131.825C26.0007 131.788 25.8509 131.78 25.7038 131.801C25.5568 131.823 25.4154 131.873 25.2881 131.95C25.1607 132.026 25.0499 132.128 24.962 132.247C24.542 132.807 24.812 133.347 25.442 133.567C25.7169 133.681 26.0244 133.688 26.3039 133.586C26.5834 133.484 26.8146 133.281 26.952 133.017Z" fill="#80B58C"/>
<path d="M7.87207 106.567C8.17207 106.707 8.54207 107.007 8.76207 106.927C8.98207 106.847 9.05208 106.367 9.18208 106.057C8.88208 105.927 8.51207 105.627 8.28207 105.707C8.05207 105.787 8.00207 106.257 7.87207 106.567Z" fill="#93BE9D"/>
<path d="M35.802 152.568C35.9216 152.669 36.075 152.723 36.232 152.718C36.292 152.718 36.332 152.478 36.382 152.348L35.932 152.188C35.882 152.338 35.762 152.568 35.802 152.568Z" fill="#97C0A1"/>
<path d="M52.5321 102.047C52.5582 101.806 52.5354 101.561 52.4649 101.328C52.3944 101.095 52.2778 100.879 52.1219 100.693C51.966 100.506 51.7741 100.353 51.5577 100.242C51.3412 100.131 51.1046 100.065 50.8621 100.047C49.7621 100.137 48.5821 101.507 48.8621 102.477C48.9583 102.779 49.1305 103.051 49.3621 103.267C50.2766 103.108 51.2091 103.077 52.1321 103.177C52.3778 102.85 52.5174 102.456 52.5321 102.047Z" fill="#6BAB79"/>
<path d="M49.3916 103.287C49.6505 103.488 49.9503 103.63 50.2699 103.703C50.5896 103.775 50.9213 103.777 51.2416 103.707C51.6036 103.666 51.9343 103.482 52.1616 103.197C51.2386 103.097 50.3061 103.127 49.3916 103.287Z" fill="#6BAB79"/>
<path d="M265.817 58.1889C259.987 47.2989 250.817 39.8488 239.817 34.6188C236.437 32.8854 232.758 31.8097 228.977 31.4489C224.977 31.1789 221.077 30.7189 217.117 30.4489C210.757 30.0589 204.377 29.7389 198.117 31.6289C194.307 32.7889 190.497 33.9488 186.767 35.3488C182.208 36.8927 178.091 39.5175 174.767 42.9989C173.224 44.8301 171.524 46.5232 169.687 48.0589C164.077 52.4589 160.957 58.2589 159.517 65.0589C158.447 70.0589 157.337 75.1488 156.287 80.2088C156.126 80.9879 156.079 81.7862 156.147 82.5788C156.497 86.5788 156.547 90.4489 155.147 94.2689C154.812 95.4217 154.812 96.6461 155.147 97.7989C155.437 99.1589 155.727 100.519 155.917 101.899C156.681 107.216 158.225 112.391 160.497 117.259C161.897 120.259 164.497 122.149 166.147 124.859C168.907 129.481 172.725 133.381 177.287 136.239C180.657 138.379 184.227 140.089 187.687 142.019C191.178 143.933 195.086 144.963 199.067 145.019C202.247 145.109 205.437 145.019 208.627 145.019V145.149C210.017 145.149 211.417 145.149 212.807 145.149C223.707 145.319 234.097 143.149 243.687 137.879C251.127 133.759 257.437 128.459 260.687 120.209C261.364 118.549 262.142 116.933 263.017 115.369C267.577 106.939 268.957 97.7189 269.567 88.3689C269.917 83.0089 269.567 77.6088 269.717 72.2288C269.887 67.1888 268.137 62.5189 265.817 58.1889Z" fill="#3AB0CB"/>
<path d="M197.691 63.1224C197.501 61.5224 195.841 60.2124 196.261 58.3224C196.135 57.7688 195.873 57.2551 195.5 56.8275C195.126 56.3999 194.652 56.0717 194.121 55.8724C190.581 56.0424 188.801 53.6524 187.421 50.9924C186.561 49.3524 187.981 49.0824 189.211 48.9924C188.761 48.1024 188.391 47.2224 189.211 46.3424C190.874 44.4166 192.917 42.8542 195.211 41.7524C199.641 37.5524 200.431 32.2724 199.891 26.5124C199.541 22.7024 198.961 18.9424 195.981 16.2624C193.906 14.4392 191.647 12.8372 189.241 11.4824C187.048 10.0475 184.381 9.53044 181.811 10.0424C180.449 10.3097 179.042 10.2445 177.711 9.85237C175.171 9.36678 172.552 9.51103 170.081 10.2724C165.619 11.3022 161.478 13.4104 158.021 16.4124C156.858 17.4925 155.626 18.4947 154.331 19.4124C154.139 19.5749 153.913 19.6925 153.669 19.7565C153.426 19.8206 153.171 19.8294 152.924 19.7824C152.677 19.7355 152.443 19.6339 152.24 19.4851C152.037 19.3363 151.87 19.144 151.751 18.9224C150.099 16.2938 148.079 13.9162 145.751 11.8624C145.562 11.918 145.367 11.9549 145.171 11.9724C144.011 11.9724 143.301 13.9724 142.081 12.9724C140.551 11.7424 142.081 10.4724 142.431 9.24238C139.897 6.45516 136.717 4.33301 133.171 3.06239C129.301 1.75239 125.421 -0.107612 121.171 0.0623884C115.451 0.342388 109.691 0.552386 104.171 2.37239C103.993 3.14104 103.717 3.88377 103.351 4.58241C101.151 7.58241 99.9408 7.58241 96.7908 4.58241C90.9222 7.02406 85.9593 11.2321 82.5909 16.6224C81.5244 18.069 80.7965 19.7367 80.4609 21.5024C79.5209 30.3624 80.9508 38.6024 88.0408 44.8324C92.9508 49.1424 98.0408 53.2124 103.041 57.4324C103.241 57.6024 103.171 58.1124 103.231 58.4324C102.371 59.6724 100.931 59.9124 99.6609 60.4324C98.1728 60.9642 96.7913 61.7566 95.5808 62.7724C92.8808 65.0324 89.8509 66.8924 87.2109 69.2024C82.6808 73.121 78.9464 77.8739 76.2109 83.2024C72.7809 89.9324 72.2108 97.2724 72.8208 104.742C73.0886 107.954 74.6034 110.934 77.0408 113.042C78.9677 114.772 81.1718 116.164 83.5608 117.162C89.9008 119.882 96.5608 120.522 103.381 120.492C105.961 120.492 108.591 119.662 111.091 120.022C114.091 120.442 116.991 120.072 119.921 120.092C123.921 120.092 127.921 119.182 131.031 116.472C134.281 113.612 138.081 111.342 140.371 107.372C141.641 105.182 143.631 103.372 145.311 101.452C146.561 100.012 147.401 99.8424 148.911 100.762C149.952 101.365 150.954 102.033 151.911 102.762C154.92 105.086 158.472 106.604 162.231 107.172C163.613 107.331 164.985 107.568 166.341 107.882C168.321 108.544 170.421 108.774 172.497 108.557C174.574 108.34 176.58 107.68 178.381 106.622C179.301 105.462 180.221 104.292 181.161 103.142C181.511 102.702 182.041 102.262 182.521 102.712C183.001 103.162 182.901 103.712 183.081 104.192C187.221 102.592 190.531 99.7324 193.881 96.9524C198.421 93.1924 201.881 88.6524 202.941 82.7324C204.001 76.8124 204.651 70.9524 201.381 65.4424C199.591 65.5624 197.991 65.7724 197.691 63.1224ZM84.6908 20.9424C84.6908 20.8124 84.5608 20.5924 84.6008 20.5624C84.9908 20.2724 85.1808 20.3724 85.1408 20.8124L84.6908 20.9424ZM99.3208 49.5324C99.1408 49.5324 98.8909 48.8724 98.9709 48.6124C99.1709 47.9124 99.3808 47.0024 100.451 47.4124C100.711 47.5024 100.811 48.0224 100.981 48.3424C100.711 49.1524 100.211 49.7024 99.3208 49.5324ZM77.3808 104.622C77.2514 104.494 77.1567 104.335 77.106 104.16C77.0552 103.985 77.0501 103.8 77.0909 103.622C77.2114 103.357 77.4228 103.144 77.6869 103.021C77.951 102.898 78.2504 102.874 78.5309 102.952C78.7409 103.202 79.1208 103.462 79.1208 103.722C79.0922 103.911 79.0193 104.091 78.908 104.246C78.7967 104.402 78.6501 104.528 78.4803 104.616C78.3106 104.704 78.1225 104.75 77.9314 104.751C77.7403 104.752 77.5516 104.708 77.3808 104.622ZM98.0309 84.7024C98.3509 85.5624 99.1208 86.4824 98.1708 87.3124C97.2208 88.1424 96.3809 87.3124 95.5309 86.9724C95.2281 87.0422 94.9332 87.1428 94.6509 87.2724C93.5509 89.2724 90.9608 90.4524 91.0508 93.2124C91.0508 94.8224 89.5208 95.6224 89.1008 97.0124C89.1008 97.1324 88.4608 97.1124 88.1008 97.0724C88.0194 97.0278 87.9509 96.9629 87.9018 96.8841C87.8528 96.8053 87.8249 96.7151 87.8208 96.6224C88.2108 94.9824 88.2108 93.1824 89.6208 91.9324C89.9408 89.3924 91.6209 87.6324 93.0909 85.7424C93.9609 84.4524 94.8509 83.1824 95.7209 81.8924C96.2909 81.0624 96.9808 80.1424 98.0508 80.5424C99.3208 81.0024 98.7309 82.0924 98.4609 83.0024C98.2909 83.5624 98.1508 84.1324 98.0008 84.7024H98.0309ZM114.601 5.17237C114.371 5.05237 114.311 4.56238 114.181 4.24238C114.501 4.12238 114.921 3.82238 115.181 3.93238C115.441 4.04238 115.481 4.54239 115.611 4.87239C115.231 4.97239 114.811 5.27236 114.591 5.16236L114.601 5.17237ZM153.541 79.9324C151.559 80.1448 149.558 80.091 147.591 79.7724C143.525 78.9956 139.4 78.5674 135.261 78.4924C129.031 78.3524 122.691 72.2724 124.181 63.2424C125.145 56.9049 127.956 50.992 132.261 46.2424C136.051 42.0624 140.661 38.9424 146.761 39.2424C147.756 39.4205 148.778 39.3899 149.761 39.1524C154.601 37.0724 157.841 39.8024 160.641 42.9624C163.375 46.1212 165.869 49.4806 168.101 53.0124C169.651 55.3724 170.261 58.1424 169.521 60.0124C170.211 70.1524 162.631 79.1624 153.531 79.9224L153.541 79.9324ZM185.381 58.8624C185.298 58.8906 185.211 58.8999 185.124 58.8895C185.037 58.8791 184.954 58.8493 184.881 58.8024C184.051 58.0224 184.281 56.9924 184.221 56.0224C183.771 55.6824 183.301 55.3624 182.881 55.0224C182.821 54.9497 182.779 54.8634 182.76 54.771C182.741 54.6787 182.745 54.583 182.771 54.4924C183.021 54.0824 183.461 54.0324 183.701 54.4424C183.931 54.9565 184.109 55.4925 184.231 56.0424C184.663 56.2926 185.024 56.649 185.279 57.0778C185.535 57.5065 185.676 57.9935 185.691 58.4924C185.669 58.5727 185.63 58.6473 185.576 58.7112C185.523 58.775 185.456 58.8266 185.381 58.8624ZM186.381 23.8624C185.521 24.5424 185.051 25.8624 183.381 25.5124C182.907 25.3248 182.46 25.076 182.051 24.7724C181.331 24.1224 181.671 23.3924 182.131 22.7724C182.528 22.11 183.005 21.4988 183.551 20.9524C184.721 19.9524 185.771 20.8024 186.641 21.5224C187.511 22.2424 187.261 23.1924 186.381 23.8924V23.8624Z" fill="#FFC55E"/>
<path d="M201.381 65.4023C201.088 63.9228 200.479 62.5241 199.595 61.3021C198.712 60.08 197.574 59.0635 196.261 58.3223C198.161 60.5423 198.651 63.7823 201.381 65.4023Z" fill="#F9E020"/>
<path d="M197.691 63.1223C197.991 65.7723 199.591 65.5623 201.381 65.4023C198.651 63.7823 198.161 60.5423 196.261 58.3223C195.841 60.2123 197.501 61.5223 197.691 63.1223Z" fill="#F9E020"/>
<path d="M194.121 55.8724C192.971 54.5824 191.881 53.2224 190.641 52.0224C190.212 51.6332 189.866 51.1616 189.624 50.6359C189.382 50.1101 189.248 49.541 189.231 48.9624C187.911 53.3624 191.631 54.1824 194.121 55.8724Z" fill="#FFC55E"/>
<path d="M189.221 48.9724C187.991 49.0924 186.571 49.3624 187.431 50.9724C188.811 53.6324 190.591 55.9724 194.131 55.8524C191.641 54.1624 187.921 53.3424 189.241 48.9424L189.221 48.9724Z" fill="#FFC55E"/>
<path d="M189.23 48.9625C191.826 47.1119 193.894 44.6164 195.23 41.7224C193.38 44.2724 190.27 45.7525 189.23 48.9625Z" fill="#FFC55E"/>
<path d="M189.231 46.3124C188.391 47.1924 188.761 48.0725 189.231 48.9625C190.231 45.7525 193.401 44.2724 195.231 41.7224C192.937 42.8242 190.895 44.3867 189.231 46.3124Z" fill="#FFC55E"/>
<path d="M104.241 2.32227C101.931 3.57227 99.6313 4.84227 96.8613 4.57227C100.381 7.12227 102.241 4.62227 104.241 2.32227Z" fill="#FFC55E"/>
<path d="M103.381 4.53223C103.748 3.83359 104.023 3.09092 104.201 2.32227C102.201 4.57227 100.291 7.12227 96.8213 4.57227C100.011 7.54227 101.221 7.56223 103.381 4.53223Z" fill="#FFC55E"/>
<path d="M145.8 11.8023C145.493 11.1314 145.033 10.5421 144.456 10.0818C143.88 9.62149 143.203 9.30313 142.48 9.15234C142.91 10.8923 144.85 10.7223 145.8 11.8023Z" fill="#F7E02A"/>
<path d="M142.131 12.8823C143.351 13.8823 144.061 11.8823 145.221 11.8823C145.417 11.8648 145.611 11.828 145.801 11.7723C144.851 10.6923 142.911 10.8623 142.481 9.12231C142.081 10.3823 140.601 11.6223 142.131 12.8823Z" fill="#F7E02A"/>
<path d="M178.381 106.622C180.281 106.472 182.021 105.992 183.081 104.192C180.561 103.112 180.291 106.442 178.381 106.622Z" fill="#F7E02D"/>
<path d="M182.521 102.672C182.041 102.222 181.521 102.672 181.161 103.102C180.221 104.252 179.301 105.422 178.381 106.582C180.291 106.442 180.561 103.112 183.081 104.152C182.901 103.622 182.871 102.992 182.521 102.672Z" fill="#F7E02D"/>
<path d="M168.051 52.9723C165.819 49.4405 163.326 46.0811 160.591 42.9223C157.791 39.7623 154.591 37.0323 149.711 39.1123C148.728 39.3498 147.707 39.3805 146.711 39.2024C140.611 38.9524 136.001 42.0724 132.211 46.2024C127.906 50.952 125.096 56.8649 124.131 63.2024C122.641 72.2024 128.981 78.3124 135.211 78.4524C139.35 78.5274 143.475 78.9556 147.541 79.7323C149.508 80.051 151.51 80.1048 153.491 79.8924C162.591 79.1324 170.171 70.1224 169.431 59.9424C170.211 58.1024 169.601 55.3323 168.051 52.9723Z" fill="#E66C6C"/>
<path d="M186.641 21.5224C185.771 20.8024 184.721 19.9924 183.551 20.9524C183.005 21.4988 182.528 22.11 182.131 22.7724C181.671 23.4224 181.331 24.1524 182.051 24.7724C182.46 25.0761 182.907 25.3248 183.381 25.5124C185.041 25.8724 185.511 24.5124 186.381 23.8624C187.251 23.2124 187.611 22.3224 186.641 21.5224Z" fill="#F9E01E"/>
<path d="M98.4813 82.9923C98.7513 82.0823 99.3414 80.9923 98.0714 80.5323C97.0013 80.1323 96.3113 81.0524 95.7413 81.8824C94.8713 83.1724 93.9813 84.4423 93.1113 85.7323L94.6414 87.2624C94.9237 87.1327 95.2186 87.0322 95.5214 86.9624L98.0214 84.6924C98.1714 84.1224 98.3113 83.5523 98.4813 82.9923Z" fill="#E9DF78"/>
<path d="M93.1106 85.7322C91.6506 87.6222 89.9606 89.3822 89.6406 91.9222L91.0406 93.2022C90.9506 90.4422 93.5406 89.3022 94.6406 87.2622C93.3806 87.4722 92.7606 87.0922 93.1106 85.7322Z" fill="#EDE062"/>
<path d="M93.1109 85.7322C92.7609 87.0922 93.4109 87.4722 94.6409 87.2622L93.1109 85.7322Z" fill="#EDE062"/>
<path d="M89.6408 91.9224C88.2308 93.1724 88.2308 94.9724 87.8408 96.6124C87.8449 96.7051 87.8728 96.7953 87.9218 96.8741C87.9709 96.9529 88.0394 97.0178 88.1208 97.0624C88.4508 97.0624 89.0508 97.1224 89.1208 97.0024C89.5408 95.6124 91.1208 94.8124 91.0708 93.2024C89.9608 93.4524 89.3108 93.2124 89.6408 91.9224Z" fill="#F8E026"/>
<path d="M89.6409 91.9224C89.3109 93.2124 89.9608 93.4524 91.0408 93.2024L89.6409 91.9224Z" fill="#F8E026"/>
<path d="M95.5205 86.9624C96.3705 87.3424 97.2505 88.1024 98.1605 87.3024C99.0705 86.5024 98.3405 85.5524 98.0205 84.6924C97.8798 85.278 97.5661 85.8077 97.1202 86.2125C96.6743 86.6174 96.1169 86.8787 95.5205 86.9624Z" fill="#F8E021"/>
<path d="M98.0205 84.6924L95.5205 86.9624C96.1169 86.8787 96.6743 86.6174 97.1202 86.2125C97.5661 85.8077 97.8798 85.278 98.0205 84.6924Z" fill="#F8E021"/>
<path d="M100.45 47.4123C99.3804 47.0023 99.1704 47.9123 98.9704 48.6123C98.8904 48.8723 99.1404 49.4922 99.3204 49.5322C100.21 49.7022 100.71 49.1522 100.98 48.3422C100.81 48.0222 100.71 47.5023 100.45 47.4123Z" fill="#F9E01F"/>
<path d="M77.0809 103.622C77.0401 103.8 77.0453 103.985 77.096 104.16C77.1468 104.335 77.2414 104.494 77.3709 104.622C77.5402 104.708 77.7274 104.753 77.9172 104.753C78.107 104.753 78.2941 104.708 78.4635 104.622C78.6329 104.537 78.7798 104.412 78.8922 104.26C79.0047 104.107 79.0796 103.929 79.1109 103.742C79.1109 103.482 78.7309 103.222 78.5209 102.972C78.2428 102.892 77.9453 102.914 77.6815 103.033C77.4177 103.152 77.2048 103.361 77.0809 103.622Z" fill="#F3E041"/>
<path d="M114.171 4.23236C114.301 4.55236 114.361 5.04235 114.591 5.16235C114.821 5.28235 115.231 4.97237 115.591 4.86237C115.461 4.53237 115.401 4.05236 115.161 3.92236C114.921 3.79236 114.491 4.11236 114.171 4.23236Z" fill="#F2E144"/>
<path d="M184.251 56.0125C184.311 57.0125 184.081 58.0124 184.911 58.7924C184.982 58.8454 185.066 58.879 185.154 58.8897C185.242 58.9005 185.331 58.888 185.413 58.8537C185.495 58.8194 185.566 58.7643 185.62 58.6939C185.674 58.6235 185.709 58.5403 185.721 58.4525C185.704 57.9543 185.56 57.4687 185.302 57.0417C185.045 56.6148 184.683 56.2605 184.251 56.0125Z" fill="#FFC55E"/>
<path d="M183.721 54.4123C183.481 54.0023 183.041 54.0523 182.791 54.4623C182.765 54.553 182.761 54.6485 182.781 54.7409C182.8 54.8332 182.841 54.9196 182.901 54.9923C183.321 55.3623 183.791 55.6823 184.241 55.9923C184.121 55.4496 183.947 54.9203 183.721 54.4123Z" fill="#FFC55E"/>
<path d="M184.251 56.0125L184.241 56.0225L184.251 56.0125Z" fill="#FFC55E"/>
<path d="M84.6006 20.5623C84.6006 20.5623 84.6606 20.8124 84.6906 20.9424L85.1406 20.8123C85.1806 20.3723 84.9906 20.2723 84.6006 20.5623Z" fill="#F5E03A"/>
</svg>
