<svg width="196" height="185" viewBox="0 0 196 185" fill="none" xmlns="http://www.w3.org/2000/svg">
<path d="M138.753 2.88317C134.654 1.89645 130.442 1.46299 126.227 1.59424C124.44 1.89678 122.61 1.84001 120.844 1.42737C116.446 -0.240703 112.504 1.10894 108.607 2.77701C101.26 5.64693 94.7306 10.276 89.5905 16.2581C89.5905 18.002 89.4389 19.761 89.3782 21.5048H89.4845C89.4912 21.5755 89.4912 21.6466 89.4845 21.7172C90.2044 22.084 90.8896 22.5155 91.5316 23.0062C91.7894 23.2336 91.7136 23.8705 91.7895 24.3255C91.289 24.2042 90.5459 24.3255 90.3639 23.9312C89.9816 23.2318 89.6863 22.4882 89.4845 21.7172L89.3025 21.611C89.3025 21.611 89.3025 21.611 89.3025 21.5048L85.7238 21.5958C85.1172 22.627 84.5408 23.6733 83.8888 24.6287C81.0075 29.087 80.856 29.178 76.0186 27.7526L60.5056 23.2033C59.7811 23.3853 59.0179 23.337 58.3222 23.0652C57.6265 22.7935 57.0327 22.3117 56.6234 21.6869C54.0455 24.462 51.4677 20.4738 48.7836 21.6869C47.8586 22.0963 47.7523 20.6708 47.4793 19.8974C46.9941 18.5478 46.4785 17.2134 45.9629 15.8638C42.4751 12.8309 38.0321 14.4383 34.0893 13.574C31.7884 13.0691 29.4104 13.0236 27.0918 13.4399C24.7732 13.8563 22.5596 14.7264 20.578 16.0003C18.9554 17.1225 17.8636 19.0331 15.2705 18.563C13.9816 18.3203 12.4651 19.2302 11.0548 19.6245C4.62516 20.6253 2.60832 25.478 1.19804 30.8764C0.060719 35.2286 1.19801 39.6262 0.788574 44.039C-1.00355 62.2666 1.38745 80.6627 7.77937 97.8266C8.93186 98.1299 10.2663 98.3574 10.7212 99.6009C11.8586 102.634 13.4811 105.667 12.8139 109.094C15.1795 113.294 17.3632 117.449 23.1104 118.101C26.0068 118.42 27.6597 121.134 27.6597 124.061C27.6205 125.7 27.9535 127.327 28.6338 128.819C29.3141 130.311 30.3239 131.629 31.5872 132.674C39.8062 140.15 48.0707 147.49 58.0943 152.539C60.0353 152.539 62.0827 151.614 63.1745 154.571C64.4786 158.15 67.2991 158.954 71.0447 157.938C75.2148 156.816 76.7768 158.802 75.0329 162.987C74.5237 164.33 74.4441 165.798 74.8054 167.188C77.1558 170.767 80.7347 173.496 81.9479 177.803C84.45 178.501 86.1483 181.154 89.3025 180.472C91.5771 179.971 93.1542 181.215 93.8518 183.505C94.1282 183.805 94.4666 184.043 94.8436 184.2C95.2206 184.357 95.6272 184.43 96.0353 184.415C98.7801 181.382 102.101 184.233 105.013 183.414C105.882 183.248 106.766 183.167 107.651 183.171C108.167 182.868 108.88 182.701 109.168 182.246C113.975 175.058 119.783 168.401 121.815 159.651C122.393 157.62 123.224 155.669 124.286 153.844C129.38 144.656 133.78 135.101 137.449 125.259C138.238 122.999 139.587 120.937 140.482 118.708C141.786 115.357 143.757 112.339 144.409 108.639C145.177 103.577 146.509 98.6179 148.382 93.8536C151.906 85.2338 154.312 76.1983 155.54 66.9674C157.86 51.2875 156.905 35.5924 154.888 20.0794C153.766 11.3599 148.489 4.79387 138.753 2.88317ZM13.3598 76.2934C13.1246 76.4394 12.8622 76.5361 12.5885 76.5778C12.3149 76.6195 12.0356 76.6053 11.7676 76.5359C11.5687 76.472 11.3851 76.3678 11.2284 76.2296C11.0716 76.0914 10.9452 75.9223 10.8569 75.7329C10.7687 75.5436 10.7204 75.338 10.7153 75.1291C10.7102 74.9202 10.7484 74.7126 10.8274 74.5192C11.3664 73.5337 12.1497 72.7035 13.102 72.1081C13.9967 71.6077 14.6185 72.4113 14.8004 73.3515C14.8397 73.9251 14.7272 74.499 14.4743 75.0154C14.2214 75.5318 13.837 75.9727 13.3598 76.2934ZM18.0911 103.816C17.8593 103.427 17.6663 103.016 17.5148 102.588C17.5148 102.482 17.9697 102.073 18.0911 102.118C18.477 102.318 18.8384 102.562 19.1678 102.846C18.8038 103.149 18.4398 103.483 18.0911 103.816ZM55.3952 130.233C54.6522 130.111 54.5309 129.596 55.0313 129.126C55.1328 129.033 55.2531 128.964 55.3839 128.922C55.5148 128.88 55.6531 128.867 55.7895 128.883C56.1815 129.14 56.5472 129.434 56.8813 129.763C56.3505 129.945 55.835 130.293 55.3952 130.233ZM62.9774 29.451C62.856 29.2387 62.6588 29.0264 62.674 28.8444C62.6891 28.6624 62.947 28.4956 63.0986 28.3137L63.417 28.9354L62.9774 29.451ZM76.898 111.55C76.5644 111.687 75.9731 111.217 75.4879 111.019C75.7002 110.534 75.8062 109.791 76.155 109.624C76.5038 109.458 77.0953 109.973 77.5805 110.186C77.4441 110.731 77.3227 111.414 76.9739 111.55H76.898ZM100.721 49.028C100.246 49.3801 99.6562 49.5425 99.0675 49.4837C98.4787 49.4248 97.9329 49.1488 97.5366 48.7095C97.3049 48.5233 97.0871 48.3207 96.8846 48.103C96.0961 47.2235 95.3682 46.2682 95.7777 44.9792C96.1871 43.6902 97.4457 43.4628 98.7195 43.4628C99.2814 43.5129 99.8389 43.6041 100.387 43.7357C100.969 43.8313 101.501 44.1222 101.895 44.5605C102.289 44.9988 102.522 45.5583 102.556 46.1468C102.549 46.7408 102.382 47.3219 102.072 47.8289C101.762 48.3359 101.322 48.7501 100.797 49.028H100.721ZM145.971 26.13C145.638 26.2513 145.092 25.7963 144.652 25.5992C144.849 25.1443 145.046 24.7045 145.259 24.2496C145.698 24.4467 146.411 24.5529 146.517 24.8714C146.553 25.1038 146.528 25.3414 146.446 25.5617C146.364 25.782 146.226 25.9777 146.047 26.13H145.971Z" fill="#3152FE"/>
<path d="M37.2447 171.953C40.5697 172.737 44.0103 172.904 47.3956 172.445C55.7161 170.92 63.6262 167.673 70.6188 162.913C76.6337 159.006 81.7092 154.229 84.5849 147.423C86.1889 143.643 88.3657 140.091 89.6947 136.241C90.9206 132.713 92.8453 130.868 96.5689 130.937C100.924 130.94 105.226 129.986 109.172 128.141C110.664 127.54 112.195 127.039 113.754 126.64C119.877 124.781 125.675 121.983 130.94 118.346C135.27 115.481 139.624 112.422 142.981 108.344C147.014 103.429 151.322 98.6854 153.819 92.6705C154.675 91.0586 155.624 89.4978 156.661 87.996C156.998 87.2666 157.549 86.6569 158.24 86.2477C158.932 85.8385 159.731 85.6491 160.533 85.7047C164.715 86.0484 168.713 84.9256 172.677 84.0892C179.998 82.5425 186.277 79.0711 190.126 72.2313C191.089 69.9399 188.717 67.4308 189.977 65.5289C191.123 63.8448 193.667 63.2375 194.973 61.4044C195.125 61.2542 195.299 61.1269 195.488 61.0264C195.441 60.6111 195.356 60.2008 195.236 59.8005C194.308 57.5091 194.239 57.5091 192.189 58.8725C191.925 59.0443 191.65 59.1932 191.375 59.3536L191.146 59.4797C191.211 59.8388 191.197 60.2077 191.105 60.5608C191.013 60.9139 190.844 61.2426 190.612 61.5241C190.38 61.8055 190.089 62.0328 189.76 62.1903C189.43 62.3477 189.071 62.4314 188.706 62.4356H188.648L187.503 63.6958C185.945 65.3342 184.455 67.0413 182.817 68.5994C180.553 70.8545 177.697 72.4234 174.579 73.1249C171.242 73.7195 167.871 74.1022 164.486 74.2706C162.401 74.431 161.14 73.1937 161.152 70.9366C161.152 64.0625 159.754 57.5091 158.563 50.864C157.497 44.9866 155.756 39.4071 151.883 34.8243C151.388 34.6297 150.96 34.2955 150.651 33.8623C150.341 33.4292 150.165 32.9156 150.142 32.3839H150.084H149.431C146.407 32.6245 146.407 32.6245 146.132 29.4739C145.364 27.572 143.588 26.9304 141.927 26.2201C132.968 22.3935 116.573 25.8306 109.71 32.1663C105.815 35.7523 103.684 40.4497 104.509 45.7084C105.654 53.0065 108.392 59.7775 113.766 65.1852C116.653 68.0609 119.758 70.7304 122.611 73.6405C125.253 76.1637 128.331 78.1862 131.696 79.6095C134.171 80.7552 136.691 81.7978 139.131 83.0466C141.572 84.2954 142.019 85.487 140.197 87.8471C137.012 91.9831 133.838 96.0503 129.611 99.3843C119.918 107.015 109.595 112.823 96.9928 113.66C94.8618 113.809 93.6359 113.075 94.0025 111.288C95.4346 104.414 93.6702 97.7116 92.7766 90.9634C92.3288 88.5014 91.5584 86.1092 90.4852 83.8486C88.1938 78.3493 83.7714 74.6831 79.4178 71.0856C76.4756 68.4626 72.6813 66.997 68.7399 66.9611C63.2749 67.11 57.7756 67.5225 53.0209 70.7762C53.3185 71.3634 53.5491 71.9821 53.7084 72.6208C53.9146 74.0873 53.3303 74.5227 51.7721 74.0644C51.1562 73.8396 50.5619 73.5597 49.9963 73.228C46.9488 75.8058 46.1697 79.346 46.0551 83.0581C45.6999 94.7442 49.6526 104.884 57.1913 113.728C61.2051 118.697 65.8811 123.091 71.0886 126.789C71.7288 127.188 72.2084 127.799 72.443 128.515C72.6777 129.232 72.6524 130.008 72.3718 130.708C69.9429 138.968 64.4779 144.456 56.7101 147.641C51.2451 149.864 45.952 152.59 40.0402 153.633C36.5229 154.252 34.518 156.692 33.5785 159.992C33.0396 161.733 32.6863 163.526 32.5244 165.342C32.2943 166.842 32.6589 168.372 33.5406 169.607C34.4223 170.842 35.7515 171.684 37.2447 171.953ZM124.134 55.4812C123.675 55.2164 123.296 54.8332 123.036 54.3717C122.776 53.9101 122.645 53.3872 122.656 52.8575V52.8003L122.141 52.1128C121.899 51.8598 121.687 51.5791 121.511 51.2765C120.422 51.5629 119.345 51.8837 118.245 52.1357C117.592 52.2847 116.882 52.2045 116.722 51.4254C116.736 51.2147 116.796 51.0097 116.899 50.8254C117.002 50.6411 117.145 50.4821 117.317 50.3599C118.211 49.7069 119.185 49.1569 120.124 48.5726C120.01 47.4269 119.987 46.2812 119.769 45.1355C119.002 41.0912 119.151 40.3122 122.702 38.8686C133.094 34.6639 139.888 37.1042 143.794 44.8606C145.976 48.8807 147.173 53.3606 147.289 57.933C147.289 60.9003 147.209 63.8677 147.369 66.8236C147.644 72.3229 145.857 72.2542 141.744 70.1347C134.767 66.7596 128.721 61.7288 124.134 55.4812ZM72.0395 103.83C68.442 98.5823 65.1653 93.1288 63.8478 86.7931C63.7845 86.3451 63.7501 85.8935 63.7447 85.4412C63.6645 82.8863 65.1768 81.7749 67.7088 82.4623C70.4355 83.1956 72.9561 84.3527 74.159 87.0451C76.929 92.7762 77.9833 99.1859 77.1951 105.502C77.1609 105.723 77.0713 105.931 76.9346 106.107C76.798 106.284 76.6188 106.423 76.4138 106.511C76.2088 106.599 75.9848 106.634 75.7628 106.611C75.5407 106.589 75.3279 106.511 75.1444 106.384C73.9861 105.695 72.9392 104.833 72.0395 103.83Z" fill="#FFC55E"/>
</svg>
